<svg width="10" height="16">
	<!--<rect x="1" y="15" width="1" height="1" style="fill:rgb(136, 0, 21)"/>
	<rect x="2" y="14" width="1" height="1" style="fill:rgb(136, 0, 21)"/>
	<rect x="8" y="15" width="1" height="1" style="fill:rgb(136, 0, 21)"/>
	<rect x="7" y="14" width="1" height="1" style="fill:rgb(136, 0, 21)"/>

	<rect x="3" y="9" width="1" height="5" style="fill:rgb(136, 0, 21)"/>
	<rect x="6" y="9" width="1" height="5" style="fill:rgb(136, 0, 21)"/>-->

	<rect x="2" y="15" width="6" height="1" style="fill:rgb(185, 122, 87)"/>
	<rect x="3" y="14" width="4" height="1" style="fill:rgb(185, 122, 87)"/>
	<rect x="4" y="9" width="2" height="5" style="fill:rgb(185, 122, 87)"/>

	<rect x="1" y="8" width="7" height="1" style="fill:rgb(148, 189, 21)"/>
	<rect x="0" y="7" width="2" height="1" style="fill:rgb(148, 189, 21)"/>
	<rect x="0" y="2" width="1" height="5" style="fill:rgb(148, 189, 21)"/>
	<rect x="1" y="1" width="1" height="2" style="fill:rgb(148, 189, 21)"/>
	<rect x="2" y="1" width="2" height="1" style="fill:rgb(148, 189, 21)"/>
	<rect x="3" y="0" width="4" height="1" style="fill:rgb(148, 189, 21)"/>
	<rect x="6" y="1" width="3" height="1" style="fill:rgb(148, 189, 21)"/>
	<rect x="8" y="2" width="2" height="1" style="fill:rgb(148, 189, 21)"/>
	<rect x="9" y="3" width="1" height="4" style="fill:rgb(148, 189, 21)"/>
	<rect x="8" y="7" width="2" height="1" style="fill:rgb(148, 189, 21)"/>

	<rect x="2" y="4" width="1" height="1" style="fill:rgb(148, 189, 21)"/>
	<rect x="4" y="3" width="1" height="1" style="fill:rgb(148, 189, 21)"/>
	<rect x="4" y="6" width="1" height="1" style="fill:rgb(148, 189, 21)"/>
	<rect x="7" y="5" width="1" height="1" style="fill:rgb(148, 189, 21)"/>

	<rect x="4" y="1" width="2" height="1" style="fill:rgb(181, 230, 29)"/>
	<rect x="2" y="2" width="6" height="1" style="fill:rgb(181, 230, 29)"/>
	<rect x="1" y="3" width="3" height="1" style="fill:rgb(181, 230, 29)"/>
	<rect x="5" y="3" width="4" height="1" style="fill:rgb(181, 230, 29)"/>
	<rect x="1" y="4" width="1" height="1" style="fill:rgb(181, 230, 29)"/>
	<rect x="3" y="4" width="6" height="1" style="fill:rgb(181, 230, 29)"/>
	<rect x="1" y="5" width="6" height="1" style="fill:rgb(181, 230, 29)"/>
	<rect x="8" y="5" width="1" height="1" style="fill:rgb(181, 230, 29)"/>
	<rect x="1" y="6" width="3" height="1" style="fill:rgb(181, 230, 29)"/>
	<rect x="5" y="6" width="4" height="1" style="fill:rgb(181, 230, 29)"/>
	<rect x="2" y="7" width="6" height="1" style="fill:rgb(181, 230, 29)"/> 
</svg>