

<svg width="14" height="14">
	<rect x="6" y="0" width="4" height="1" style="fill:rgb(255, 201, 14)"/>

	<rect x="5" y="1" width="6" height="1" style="fill:rgb(255, 201, 14)"/>

	<rect x="5" y="2" width="3" height="1" style="fill:rgb(255, 201, 14)"/> 
	<rect x="8" y="2" width="1" height="1" style="fill:rgb(0, 0, 0)"/>
	<rect x="9" y="2" width="1" height="1" style="fill:rgb(255, 201, 14)"/>
	<rect x="10" y="2" width="1" height="1" style="fill:rgb(255, 127, 39)"/>

	<rect x="5" y="3" width="5" height="1" style="fill:rgb(255, 201, 14)"/>
	<rect x="10" y="3" width="3" height="1" style="fill:rgb(255, 127, 32)"/>

	<rect x="0" y="4" width="1" height="1" style="fill:rgb(255, 201, 14)"/>
	<rect x="6" y="4" width="3" height="1" style="fill:rgb(255, 201, 14)"/>
	<rect x="9" y="4" width="3" height="1" style="fill:rgb(255, 127, 32)"/>

	<rect x="0" y="5" width="2" height="1" style="fill:rgb(255, 201, 14)"/>
	<rect x="3" y="5" width="3" height="1" style="fill:rgb(255, 201, 14)"/>
	<rect x="7" y="5" width="3" height="1" style="fill:rgb(255, 201, 14)"/>	

	<rect x="0" y="6" width="2" height="1" style="fill:rgb(255, 201, 14)"/>
	<rect x="2" y="6" width="1" height="1" style="fill:rgb(218, 142, 3)"/>
	<rect x="3" y="6" width="8" height="1" style="fill:rgb(255, 201, 14)"/>

	<rect x="1" y="7" width="2" height="1" style="fill:rgb(255, 201, 14)"/>
	<rect x="3" y="7" width="1" height="1" style="fill:rgb(218, 142, 3)"/>
	<rect x="4" y="7" width="3" height="1" style="fill:rgb(255, 201, 14)"/>
	<rect x="7" y="7" width="1" height="1" style="fill:rgb(218, 142, 3)"/>
	<rect x="8" y="7" width="4" height="1" style="fill:rgb(255, 201, 14)"/>

	<rect x="1" y="8" width="3" height="1" style="fill:rgb(255,201 , 14)"/>
	<rect x="4" y="8" width="3" height="1" style="fill:rgb(218, 142, 3)"/>
	<rect x="7" y="8" width="5" height="1" style="fill:rgb(255, 201, 14)"/>

	<rect x="1" y="9" width="11" height="1" style="fill:rgb(255, 201, 14)"/>

	<rect x="2" y="10" width="9" height="1" style="fill:rgb(255, 201, 14)"/>

	<rect x="3" y="11" width="7" height="1" style="fill:rgb(255, 201, 14)"/>

	<rect x="6" y="12" width="1" height="1" style="fill:rgb(255, 127, 39)"/>

	<rect x="6" y="13" width="2" height="1" style="fill:rgb(255, 127, 39)"/>
</svg>
