<svg width="6" height="9">
	<rect x="4" y="0" width="1" height="1" style="fill:rgb(255, 242, 0)"/>
	<rect x="3" y="1" width="1" height="1" style="fill:rgb(255, 242, 0)"/>
	<rect x="2" y="2" width="1" height="1" style="fill:rgb(255, 242, 0)"/>
	<rect x="1" y="3" width="1" height="1" style="fill:rgb(255, 242, 0)"/>
	<rect x="5" y="3" width="1" height="1" style="fill:rgb(255, 242, 0)"/>
	<rect x="0" y="4" width="5" height="1" style="fill:rgb(255, 242, 0)"/>
	<rect x="3" y="5" width="1" height="1" style="fill:rgb(255, 242, 0)"/>
	<rect x="2" y="6" width="1" height="1" style="fill:rgb(255, 242, 0)"/>
	<rect x="1" y="7" width="1" height="1" style="fill:rgb(255, 242, 0)"/>
	<rect x="0" y="8" width="1" height="1" style="fill:rgb(255, 242, 0)"/>

	<rect x="4" y="1" width="1" height="1" style="fill:rgb(252, 210, 67)"/>
	<rect x="3" y="2" width="1" height="1" style="fill:rgb(252, 210, 67)"/>
	<rect x="2" y="3" width="1" height="1" style="fill:rgb(252, 210, 67)"/>
	<rect x="5" y="4" width="1" height="1" style="fill:rgb(252, 210, 67)"/>
	<rect x="4" y="5" width="1" height="1" style="fill:rgb(252, 210, 67)"/>
	<rect x="3" y="6" width="1" height="1" style="fill:rgb(252, 210, 67)"/>
	<rect x="2" y="7" width="1" height="1" style="fill:rgb(252, 210, 67)"/>
	<rect x="1" y="8" width="1" height="1" style="fill:rgb(252, 210, 67)"/>
</svg>