<svg width="11" height="11">
	<rect x="4" y="0" width="3" height="1" style="fill:rgb(102, 51, 0)"/>
	<rect x="0" y="4" width="1" height="3" style="fill:rgb(102, 51, 0)"/>
	<rect x="4" y="10" width="3" height="1" style="fill:rgb(102, 51, 0)"/>
	<rect x="10" y="4" width="1" height="3" style="fill:rgb(102, 51, 0)"/>

	<rect x="2" y="1" width="2" height="1" style="fill:rgb(102, 51, 0)"/>
	<rect x="1" y="3" width="1" height="1" style="fill:rgb(102, 51, 0)"/>
	
	<rect x="1" y="7" width="1" height="2" style="fill:rgb(102, 51, 0)"/>
	<rect x="2" y="9" width="2" height="1" style="fill:rgb(102, 51, 0)"/>

	<rect x="7" y="9" width="2" height="1" style="fill:rgb(102, 51, 0)"/>
	<rect x="9" y="7" width="1" height="2" style="fill:rgb(102, 51, 0)"/>

	<rect x="7" y="1" width="1" height="1" style="fill:rgb(102, 51, 0)"/>
	<rect x="9" y="2" width="1" height="2" style="fill:rgb(102, 51, 0)"/>

	<rect x="4" y="1" width="3" height="1" style="fill:rgb(64, 32, 0)"/>
	<rect x="7" y="2" width="1" height="1" style="fill:rgb(64, 32, 0)"/>
	<rect x="8" y="1" width="1" height="3" style="fill:rgb(64, 32, 0)"/>
	<rect x="9" y="4" width="1" height="3" style="fill:rgb(64, 32, 0)"/>
	<rect x="8" y="7" width="1" height="2" style="fill:rgb(64, 32, 0)"/>
	<rect x="7" y="8" width="1" height="1" style="fill:rgb(64, 32, 0)"/>
	<rect x="4" y="9" width="3" height="1" style="fill:rgb(64, 32, 0)"/>
	<rect x="2" y="8" width="2" height="1" style="fill:rgb(64, 32, 0)"/>
	<rect x="2" y="7" width="1" height="1" style="fill:rgb(64, 32, 0)"/>
	<rect x="1" y="4" width="1" height="3" style="fill:rgb(64, 32, 0)"/>
	<rect x="1" y="2" width="3" height="1" style="fill:rgb(64, 32, 0)"/>
	<rect x="2" y="3" width="1" height="1" style="fill:rgb(64, 32, 0)"/>

	<rect x="4" y="2" width="3" height="1" style="fill:rgb(159, 80, 0)"/>
	<rect x="4" y="8" width="3" height="1" style="fill:rgb(159, 80, 0)"/>
	<rect x="2" y="4" width="1" height="3" style="fill:rgb(159, 80, 0)"/>
	<rect x="8" y="4" width="1" height="3" style="fill:rgb(159, 80, 0)"/>
	<rect x="3" y="3" width="5" height="5" style="fill:rgb(159, 80, 0)"/>
</svg>